<svg xmlns="http://www.w3.org/2000/svg" viewBox="0 0 960 360" fill="none">
  <rect width="960" height="360" rx="32" fill="#09090B"/>
  <rect x="32" y="32" width="896" height="296" rx="24" fill="#0D1017" stroke="#1E2330"/>

  <g transform="translate(96 72)">
    <rect x="0" y="0" width="216" height="216" rx="48" fill="#11151E" stroke="#242A36"/>
    <path d="M66 42V96C66 112.569 79.4315 126 96 126H136C152.569 126 166 139.431 166 156C166 172.569 152.569 186 136 186H64" stroke="#06B6D4" stroke-width="13" stroke-linecap="round" stroke-linejoin="round"/>
    <path d="M66 82H136C166.928 82 192 107.072 192 138C192 168.928 166.928 194 136 194H96" stroke="#06B6D4" stroke-width="13" stroke-linecap="round"/>
    <path d="M44 154H132" stroke="#06B6D4" stroke-width="13" stroke-linecap="round"/>
    <circle cx="136" cy="154" r="26" fill="#11151E" stroke="#06B6D4" stroke-width="12"/>
    <circle cx="136" cy="154" r="9" fill="#F59E0B"/>
    <circle cx="66" cy="82" r="15" fill="#06B6D4"/>
    <circle cx="66" cy="126" r="15" fill="#F59E0B"/>
    <circle cx="44" cy="154" r="15" fill="#06B6D4"/>
  </g>

  <g transform="translate(376 112)">
    <text x="0" y="86" fill="#F4F1EA" font-family="Geist, Satoshi, Inter, Arial, sans-serif" font-size="82" font-weight="650" letter-spacing="-1">Lead</text>
    <text x="202" y="86" fill="#06B6D4" font-family="Geist, Satoshi, Inter, Arial, sans-serif" font-size="82" font-weight="650" letter-spacing="-1">OS</text>
    <text x="4" y="128" fill="#8B8FA3" font-family="Geist, Satoshi, Inter, Arial, sans-serif" font-size="18" font-weight="500">route the day from signal to decision</text>
  </g>

  <g transform="translate(640 235)">
    <path d="M22 8V30C22 36.6274 27.3726 42 34 42H50C56.6274 42 62 47.3726 62 54C62 60.6274 56.6274 66 50 66H20" stroke="#F4F1EA" stroke-width="6" stroke-linecap="round" stroke-linejoin="round"/>
    <path d="M14 54H50" stroke="#F4F1EA" stroke-width="6" stroke-linecap="round"/>
    <circle cx="50" cy="54" r="10" fill="#09090B" stroke="#F4F1EA" stroke-width="5"/>
    <circle cx="22" cy="30" r="6" fill="#F4F1EA"/>
    <circle cx="22" cy="42" r="6" fill="#F4F1EA"/>
    <circle cx="14" cy="54" r="6" fill="#F4F1EA"/>
  </g>
  <text x="724" y="282" fill="#F4F1EA" font-family="Geist, Satoshi, Inter, Arial, sans-serif" font-size="32" font-weight="650">LeadOS</text>
</svg>
