<svg xmlns="http://www.w3.org/2000/svg" viewBox="0 0 216 216" fill="none">
  <rect width="216" height="216" rx="48" fill="#09090B"/>
  <path d="M66 42V96C66 112.569 79.4315 126 96 126H136C152.569 126 166 139.431 166 156C166 172.569 152.569 186 136 186H64" stroke="#06B6D4" stroke-width="13" stroke-linecap="round" stroke-linejoin="round"/>
  <path d="M66 82H136C166.928 82 192 107.072 192 138C192 168.928 166.928 194 136 194H96" stroke="#06B6D4" stroke-width="13" stroke-linecap="round"/>
  <path d="M44 154H132" stroke="#06B6D4" stroke-width="13" stroke-linecap="round"/>
  <circle cx="136" cy="154" r="26" fill="#09090B" stroke="#06B6D4" stroke-width="12"/>
  <circle cx="136" cy="154" r="9" fill="#F59E0B"/>
  <circle cx="66" cy="82" r="15" fill="#06B6D4"/>
  <circle cx="66" cy="126" r="15" fill="#F59E0B"/>
  <circle cx="44" cy="154" r="15" fill="#06B6D4"/>
</svg>
